<svg width="133" height="52" viewBox="0 0 133 52" fill="none" xmlns="http://www.w3.org/2000/svg">
<path d="M52.1975 36.7813C52.1418 37.9498 52.1696 39.1462 51.9749 40.2869C51.7801 41.5389 51.0846 42.624 50.2221 43.57C48.3858 45.2115 46.1878 45.9071 43.7672 46.2131C41.0128 46.547 38.2862 46.4914 35.5317 46.1297C33.612 45.8236 31.7757 45.2393 30.2733 43.9595C28.0753 42.0954 27.6023 39.6192 27.8805 36.8926C27.9084 36.6143 27.9362 36.3361 27.964 36.0579C27.9918 35.9466 28.0196 35.8353 28.0753 35.7519C28.5205 34.3885 29.2717 33.1922 30.3846 32.274C31.3584 31.495 32.5547 30.8551 33.7789 30.6047C34.391 30.4934 35.0031 30.4377 35.6152 30.3821C36.7559 30.243 37.8967 30.0482 39.0652 29.9648C39.2878 29.9369 39.5104 29.9369 39.7608 29.9091C42.4039 29.77 45.0192 30.1317 47.5511 30.9942C47.6624 31.0498 47.7737 31.1055 47.9128 31.1611C50.2221 32.3297 51.7245 34.1103 52.1696 36.6978C52.1696 36.6978 52.1696 36.7535 52.1975 36.7813Z" fill="white"/>
<path d="M40.1724 44.9056C41.5636 44.7387 43.1773 44.6274 44.7631 44.3214C46.6273 43.9597 48.2688 43.125 49.326 41.4556C50.1607 40.0923 50.3277 38.5899 50.0773 37.004C49.8269 35.4738 49.2148 34.1939 47.9071 33.2758C46.0708 31.996 43.9285 31.6343 41.7583 31.5786C39.7551 31.523 37.6962 31.6343 35.693 31.8847C34.2184 32.0794 32.7716 32.6081 31.6587 33.6653C30.1285 35.1121 29.739 36.9484 29.9615 39.0072C30.1841 41.2609 31.3527 42.7355 33.3281 43.6536C35.4148 44.6552 37.6962 44.6274 40.1724 44.9056Z" fill="#DAE147"/>
<path d="M56.8655 38.8955C56.3647 37.866 55.5022 37.1427 54.3893 36.8644C54.1111 36.781 53.8329 36.7253 53.5268 36.6418L53.1929 36.5584V36.5027C54.2502 36.1967 55.0014 35.6124 55.4744 34.7221C56.1978 33.3588 56.17 32.0233 55.3631 30.4931C54.7232 29.2689 53.4433 28.3507 52.08 28.156C50.9115 27.989 49.8264 28.3507 49.0196 29.1854C48.797 29.4358 48.5744 29.6862 48.324 29.9644C48.2684 30.0201 48.2405 30.0757 48.1849 30.1314C48.4631 28.5733 48.2684 27.2378 47.6006 26.2362C47.0442 25.4015 46.1538 24.8172 45.1244 24.6225C43.7889 24.3721 42.5925 24.7894 41.897 25.8189C41.424 26.4866 41.0623 27.2378 40.7563 27.8777C40.6728 28.0725 40.5615 28.2673 40.478 28.462C39.9494 25.8467 38.3635 24.2608 36.4438 24.4556C33.2163 24.8172 32.7434 27.3213 32.7434 29.5193C31.7139 28.1281 30.6845 27.0431 28.8482 27.3213L28.3752 27.3769C26.5389 27.6273 25.3147 29.241 24.953 30.966C24.7583 31.8285 24.7305 32.691 25.12 33.4979C25.4538 34.1656 26.4833 35.4455 27.318 35.4733C27.2345 35.4733 27.151 35.4733 27.0397 35.4733C26.7337 35.4733 26.3998 35.4733 26.0938 35.5011C24.3409 35.7237 23.1724 36.6975 22.6159 38.4503L22.5325 39.2293C22.2821 40.8987 22.922 42.4289 24.3966 43.4862C25.5651 44.3487 27.0954 44.3765 28.5421 43.5418L28.6256 43.4862L28.57 43.5418L27.7075 45.2668L27.5127 46.3241C27.3736 47.5483 28.0413 48.856 29.2655 49.7463C31.2688 51.1931 33.4667 50.5253 34.9413 48.6612C35.2474 48.2995 35.4421 47.8543 35.6369 47.4092C35.6925 47.2979 35.7204 47.1866 35.776 47.1031C35.776 47.2422 35.8038 47.3814 35.8038 47.5205C35.8317 48.0213 35.8595 48.5499 35.9986 49.0507C36.3325 50.3584 37.1115 51.3322 38.1966 51.7495C38.6417 51.9164 39.0869 51.9999 39.5042 51.9999C40.7006 51.9999 41.8692 51.36 42.4256 50.3027C42.7595 49.6628 42.9821 48.9951 43.2046 48.3273C43.2881 48.1047 43.3438 47.91 43.4272 47.7152C43.455 47.7709 43.4829 47.8543 43.5107 47.91C43.6498 48.2439 43.8446 48.6612 44.095 49.0507C44.7627 50.108 45.9591 51.4156 48.2962 50.887C49.6317 50.581 50.8837 49.3011 51.2732 47.8822C51.4123 47.3257 51.4401 46.7693 51.3288 46.2128C51.2732 45.9068 51.1341 45.6007 51.0228 45.3225C50.995 45.239 50.8558 44.933 50.9115 44.8495C50.9671 44.7104 51.5514 44.8495 51.8018 44.9608C52.3304 45.1556 52.8591 45.3503 53.3877 45.3225C54.9458 45.2947 56.1421 44.4322 56.9212 42.7906C57.4498 41.5943 57.4498 40.0918 56.8655 38.8955ZM27.9579 36.8644C27.9857 36.6697 28.0135 36.4749 28.0135 36.2802L28.0413 36.0297L28.1526 35.7237C28.6256 34.3047 29.4046 33.1362 30.4341 32.3015C31.1296 31.7451 31.9365 31.3556 32.6877 31.0217C33.4111 30.6878 34.1623 30.6043 34.9413 30.4931L35.2474 30.4652C35.4143 30.4374 35.5813 30.4096 35.7482 30.3818C35.9151 30.3539 36.0542 30.3261 36.2212 30.3261C37.1393 30.187 38.1409 30.0757 39.1704 29.9922C39.3651 29.9644 39.5599 29.9644 39.7546 29.9644C42.37 29.8253 44.9853 30.187 47.4893 31.0495L47.851 31.2164C50.2716 32.4406 51.6627 34.2213 52.08 36.7253C52.08 36.781 52.1079 36.8088 52.1357 36.8644C52.1079 37.2261 52.1079 37.5878 52.08 37.9217C52.0522 38.7285 52.0244 39.5632 51.8853 40.3422C51.6905 41.4552 51.1063 42.5402 50.1603 43.5697C48.5466 45.0164 46.5155 45.8511 43.7611 46.185C41.1179 46.491 38.3635 46.4632 35.5534 46.1015C33.2998 45.7398 31.6304 45.0721 30.3228 43.9314C28.3752 42.2064 27.624 39.9806 27.9579 36.8644Z" fill="#DAE147"/>
<path d="M36.224 38.9514C37.1921 38.9514 37.9768 38.1667 37.9768 37.1986C37.9768 36.2306 37.1921 35.4458 36.224 35.4458C35.256 35.4458 34.4712 36.2306 34.4712 37.1986C34.4712 38.1667 35.256 38.9514 36.224 38.9514Z" fill="#1D1D1B"/>
<path d="M44.0123 38.9517C44.9804 38.9517 45.7652 38.1669 45.7652 37.1989C45.7652 36.2308 44.9804 35.446 44.0123 35.446C43.0443 35.446 42.2595 36.2308 42.2595 37.1989C42.2595 38.1669 43.0443 38.9517 44.0123 38.9517Z" fill="#1D1D1B"/>
<path d="M17.7789 12.7426L9.20957 0.305908H2.67126V21.3398H8.40271V8.23534L15.0523 18.0289H20.3108L26.9604 8.01276V21.3398H32.6362V0.305908H26.237L17.7789 12.7426Z" fill="#B46B95"/>
<path d="M64.0738 21.3398L52.8613 0.305908H46.629L35.4165 21.3398H41.8435L43.8189 17.4446H55.3931L57.3685 21.3398H64.0738ZM46.156 12.9095L49.6617 6.093L53.1117 12.9095H46.156Z" fill="#B46B95"/>
<path d="M68.0825 18.7802C70.3917 20.7 73.5635 21.6738 77.5978 21.6738C81.632 21.6738 84.5812 20.5331 86.4454 18.2516L86.8627 21.3399H91.3421V9.68226H78.1264V14.0226H85.3046C84.5256 15.9423 82.2441 16.8883 78.4881 16.8883C73.4244 16.8883 70.8925 14.8851 70.8925 10.8786C70.8925 6.84435 73.4244 4.81331 78.4881 4.81331C81.9937 4.81331 84.1082 5.87056 84.8316 7.98508L90.9526 6.70524C90.257 4.50726 88.8659 2.81008 86.7792 1.69718C84.6925 0.556452 81.9103 0 78.4603 0C74.1478 0 70.7534 0.973789 68.305 2.89355C65.8566 4.8133 64.6325 7.48427 64.6325 10.8786C64.6046 14.2173 65.7454 16.8605 68.0825 18.7802Z" fill="#B46B95"/>
<path d="M102.276 0.305908H96.1833V21.3398H102.276V0.305908Z" fill="#B46B95"/>
<path d="M119.859 16.8883C115.018 16.8883 112.598 14.8851 112.598 10.8508C112.598 6.81653 115.018 4.81331 119.859 4.81331C123.421 4.81331 125.507 6.09315 126.147 8.625L132.491 7.40081C131.851 4.98024 130.46 3.14395 128.318 1.89194C126.147 0.639919 123.337 0 119.859 0C115.714 0 112.403 0.973791 109.982 2.92137C107.562 4.86895 106.338 7.5121 106.338 10.8508C106.338 14.2173 107.506 16.8605 109.871 18.8081C112.236 20.7556 115.547 21.7016 119.832 21.7016C123.337 21.7016 126.147 21.0617 128.29 19.7819C130.432 18.502 131.795 16.6101 132.38 14.1339L126.12 12.9375C125.647 15.5528 123.532 16.8883 119.859 16.8883Z" fill="#B46B95"/>
<path d="M14.9964 26.4036H8.04073C3.75605 26.4036 2.86572 28.4903 2.86572 30.3266V32.1072H0V36.1971H2.8379V46.9923H8.93105V36.1971H11.5742V32.1072H8.93105V31.2725C8.93105 30.41 9.1258 30.0483 10.0996 30.0483H14.9964V46.9645H21.173V26.4036H15.7476H14.9964Z" fill="#B46B95"/>
<path d="M80.3806 41.5947L76.9306 32.1072H70.4479L67.1092 41.5947L63.7149 32.1072H57.3157L63.4645 46.9644H69.8358L73.4806 37.1152L77.1254 46.9644H83.6637L89.3951 32.1072H83.6637L80.3806 41.5947Z" fill="#B46B95"/>
<path d="M101.468 31.6901H99.7708C91.7301 31.6901 89.4764 35.3626 89.4764 39.1743V39.7864C89.4764 43.6816 92.0083 47.382 99.9377 47.382H101.524C107.645 47.382 110.176 45.657 111.15 43.9042L104.835 42.7078C104.167 43.1808 102.97 43.626 100.8 43.626H100.772C97.3781 43.626 95.8756 42.4574 95.5139 40.7324H111.79V39.703C111.79 36.086 110.176 31.6901 101.468 31.6901ZM95.6252 37.6441C96.0982 36.0582 97.4893 35.1401 100.578 35.1401H100.605C103.722 35.1401 105.168 36.086 105.586 37.6441H95.6252Z" fill="#B46B95"/>
<path d="M126.397 31.7732H126.091C122.391 31.7732 120.582 33.8877 120.082 34.7224V32.1071H113.961V46.9643H120.109V39.2853C120.109 37.3934 121.25 35.6962 123.309 35.6962H123.337C125.646 35.6962 126.481 37.3377 126.481 39.2018L132.407 38.0611C132.324 34.4163 130.571 31.7732 126.397 31.7732Z" fill="#B46B95"/>
</svg>
