<svg width="66" height="51" viewBox="0 0 66 51" fill="none" xmlns="http://www.w3.org/2000/svg">
<rect width="66" height="51" rx="5" fill="white"/>
<path d="M37.9705 16.4619H28.1817V34.0276H37.9705V16.4619Z" fill="#F26522"/>
<path d="M28.8123 25.2305C28.8123 21.6873 30.4938 18.5045 33.0761 16.4627C31.1844 14.9613 28.7823 14.0605 26.1699 14.0605C20.0145 14.0605 15 19.075 15 25.2305C15 31.416 20.0145 36.4004 26.1699 36.4004C28.7823 36.4004 31.1844 35.4996 33.0761 33.9983C30.4938 31.9865 28.8123 28.8037 28.8123 25.2305Z" fill="#E51B24"/>
<path d="M51.1822 25.23C51.1822 31.4155 46.1678 36.3999 40.0123 36.3999C37.4 36.3999 34.9978 35.4991 33.1061 33.9978C35.7185 31.956 37.3699 28.7732 37.3699 25.2C37.3699 21.6268 35.6884 18.444 33.1061 16.4021C34.9978 14.9008 37.4 14 40.0123 14C46.1678 14.0601 51.1822 19.0745 51.1822 25.23ZM50.1013 32.1662V31.8059H50.2514V31.7458H49.8911V31.8059H50.0412V32.1662H50.1013ZM50.8219 32.1662V31.7458H50.7018L50.5817 32.0461L50.4616 31.7458H50.3415V32.1662H50.4316V31.8359L50.5517 32.1061H50.6418L50.7619 31.8359V32.1662H50.8219Z" fill="#F99F1C"/>
</svg>
