<svg width="66" height="51" viewBox="0 0 66 51" fill="none" xmlns="http://www.w3.org/2000/svg">
<rect width="66" height="51" rx="5" fill="white"/>
<path d="M35.1048 20.279L32.3828 26.2151H32.1204V19H28.2177V31.2H31.5301C32.3828 31.2 33.1699 30.7081 33.5306 29.921L36.2527 23.9849H36.5151V31.2H40.3849V19H37.1054C36.2527 19 35.4656 19.4919 35.1048 20.279Z" fill="#20AA4D"/>
<path d="M20.5108 20.607L18.9038 26.2151H18.6414L17.0016 20.607C16.7392 19.6559 15.8538 19 14.8699 19H11V31.2H14.8699V23.9849H15.1323L17.3624 31.2H20.15L22.3801 23.9849H22.6425V31.2H26.5124V19H22.6753C21.6586 19 20.8059 19.6559 20.5108 20.607Z" fill="#20AA4D"/>
<path d="M42.0903 24.542V31.1995H45.9602V27.3296H50.1253C51.929 27.3296 53.4704 26.1818 54.0608 24.542H42.0903Z" fill="#20AA4D"/>
<path d="M50.1253 19H41.5328C42.0575 21.8532 44.55 23.9849 47.5344 23.9849H54.2247C54.2903 23.7226 54.3231 23.4274 54.3231 23.1651C54.2903 20.8694 52.4209 19 50.1253 19Z" fill="url(#paint0_linear_1385_74238)"/>
<defs>
<linearGradient id="paint0_linear_1385_74238" x1="41.5251" y1="21.4979" x2="54.2905" y2="21.4979" gradientUnits="userSpaceOnUse">
<stop offset="0.00985222" stop-color="#00A7E3"/>
<stop offset="0.3366" stop-color="#009EDC"/>
<stop offset="0.8748" stop-color="#0085C9"/>
<stop offset="1" stop-color="#007EC4"/>
</linearGradient>
</defs>
</svg>
