<svg width="66" height="51" viewBox="0 0 66 51" fill="none" xmlns="http://www.w3.org/2000/svg">
<rect width="66" height="51" rx="5" fill="white"/>
<path d="M33.4488 31.7323C33.4488 33.1496 32.9974 34.3885 32.0945 35.4488L33.2283 36.6299L31.685 38L30.4882 36.7559C29.6378 37.2283 28.7139 37.4646 27.7165 37.4646C26.1417 37.4646 24.7927 36.9134 23.6693 35.811C22.5564 34.6982 22 33.3386 22 31.7323C22 30.126 22.5564 28.7717 23.6693 27.6693C24.7822 26.5564 26.1312 26 27.7165 26C29.3018 26 30.6509 26.5564 31.7638 27.6693C32.8871 28.7717 33.4488 30.126 33.4488 31.7323ZM27.7165 35.3386C28.1365 35.3386 28.5459 35.2703 28.9449 35.1339L27.1339 33.2441L28.6772 31.874L30.6142 33.8898C31.0551 33.2598 31.2756 32.5407 31.2756 31.7323C31.2756 30.6824 30.9344 29.8163 30.252 29.1339C29.5696 28.4514 28.7244 28.1102 27.7165 28.1102C26.7087 28.1102 25.8635 28.4514 25.1811 29.1339C24.4987 29.8163 24.1575 30.6824 24.1575 31.7323C24.1575 32.7717 24.4987 33.6325 25.1811 34.315C25.8635 34.9974 26.7087 35.3386 27.7165 35.3386Z" fill="#2F3132"/>
<path d="M43.4468 37.2441H41.1004L38.8799 33.4173H37.2264V37.2441H35.0532V26.2205H39.4626C40.481 26.2205 41.3471 26.5774 42.061 27.2913C42.7749 28.0052 43.1319 28.8661 43.1319 29.874C43.1319 30.5564 42.9377 31.1916 42.5492 31.7795C42.1608 32.357 41.6463 32.7927 41.0059 33.0866L43.4468 37.2441ZM39.4626 28.252H37.2264V31.5118H39.4626C39.872 31.5118 40.2238 31.3543 40.5177 31.0394C40.8117 30.7139 40.9587 30.3255 40.9587 29.874C40.9587 29.4226 40.8117 29.0394 40.5177 28.7244C40.2238 28.4094 39.872 28.252 39.4626 28.252Z" fill="#2F3132"/>
<path d="M25.1112 18.2221V20.3333H23V18.2221H25.1112ZM23 24.5554H25.1112V22.4442H23V24.5554ZM25.1112 20.3333V22.4442L27.2224 22.4446V20.3333H25.1112ZM29.3333 14H27.2221V16.1112H25.1112V18.2221H29.3333V14ZM23 14V16.1112H25.1112V14H23ZM29.3333 22.4442L27.2224 22.4446L27.2221 24.5554H32.5V22.4442H31.4446V20.333H29.3333V22.4442ZM42 19.2776V23.4997C42 24.0827 41.5275 24.5551 40.9445 24.5551H36.7221C36.1391 24.5551 35.6667 24.0827 35.6667 23.4997V20.333H31.4446V16.1109H33.5558V18.2221H34.6112V14H36.7224V18.2221H40.9445C41.5275 18.2221 42 18.6946 42 19.2776ZM39.8888 20.3333H37.7776V22.4446H39.8888V20.3333Z" fill="#2F3132"/>
</svg>
