<svg width="66" height="51" viewBox="0 0 66 51" fill="none" xmlns="http://www.w3.org/2000/svg">
<rect width="66" height="51" rx="5" fill="white"/>
<path d="M23.2794 20.4756C23.7023 21.0187 24.0196 21.6161 24.2839 22.2679L16.5121 28.2422L13.287 26.0697V23.5171L16.5121 25.6352L23.2794 20.4756Z" fill="#21A038"/>
<path d="M9.95618 25.9068C9.95618 25.7982 9.95618 25.6895 9.95618 25.5809L8 25.418C8 25.5809 8 25.6895 8 25.8525C8 26.993 8.21148 28.1879 8.63444 29.2741C9.05739 30.3604 9.69183 31.338 10.4849 32.1526L11.8595 30.6862C11.2251 30.0345 10.7492 29.2741 10.432 28.4594C10.1148 27.6448 9.95618 26.7758 9.95618 25.9068Z" fill="url(#paint0_linear_1386_74279)"/>
<path d="M16.5121 19.0639C16.6178 19.0639 16.7236 19.0639 16.8293 19.0639L16.9351 17C16.7764 17 16.6707 17 16.5121 17C15.4018 17 14.2916 17.2172 13.287 17.6517C12.2296 18.0862 11.3309 18.738 10.5378 19.5527L11.9124 21.0191C12.494 20.3673 13.2342 19.8785 14.0272 19.5527C14.8203 19.2268 15.6662 19.0639 16.5121 19.0639Z" fill="url(#paint1_linear_1386_74279)"/>
<path d="M16.5119 32.6964C16.4061 32.6964 16.3004 32.6964 16.1947 32.6964L16.0889 34.7603C16.2475 34.7603 16.3533 34.7603 16.5119 34.7603C17.6221 34.7603 18.7324 34.543 19.7898 34.1085C20.8472 33.6741 21.746 33.0223 22.539 32.2076L21.1644 30.7412C20.53 31.393 19.8427 31.8818 19.0496 32.2076C18.2566 32.5335 17.4107 32.6964 16.5119 32.6964Z" fill="url(#paint2_linear_1386_74279)"/>
<path d="M20.213 20.2587L21.8519 19.0095C20.3716 17.7061 18.4683 17 16.5121 17V19.0639C17.8338 19.0639 19.1556 19.444 20.213 20.2587Z" fill="url(#paint3_linear_1386_74279)"/>
<path d="M25.0769 25.9071C25.0769 25.364 25.024 24.8208 24.9183 24.332L23.0678 25.6898C23.0678 25.7441 23.0678 25.7985 23.0678 25.8528C23.0678 26.8304 22.8564 27.7537 22.4863 28.6227C22.1162 29.4917 21.5875 30.252 20.9002 30.9038L22.2219 32.4245C23.1207 31.6098 23.808 30.5779 24.2838 29.4373C24.8125 28.3511 25.0769 27.1019 25.0769 25.9071Z" fill="#21A038"/>
<path d="M16.512 32.6971C15.6133 32.6971 14.7145 32.4799 13.8686 32.0997C13.0226 31.7195 12.2825 31.1221 11.648 30.416L10.1677 31.7738C10.9607 32.6971 11.9652 33.4575 13.0226 33.9463C14.1329 34.4351 15.296 34.7067 16.4592 34.7067V32.6971H16.512Z" fill="url(#paint4_linear_1386_74279)"/>
<path d="M12.1238 20.802L10.8021 19.2812C9.90331 20.0959 9.216 21.1279 8.74018 22.2684C8.26435 23.409 8 24.6581 8 25.9073H9.95618C9.95618 24.9297 10.1677 24.0064 10.5377 23.1374C10.9078 22.2141 11.4365 21.4537 12.1238 20.802Z" fill="url(#paint5_linear_1386_74279)"/>
<path d="M34.0373 20.5957C34.9782 20.5957 35.795 20.7453 36.4877 21.0446C37.1907 21.3439 37.7283 21.7728 38.1005 22.3314C38.4727 22.8901 38.6588 23.5534 38.6588 24.3215C38.6588 25.0797 38.4727 25.743 38.1005 26.3116C37.7283 26.8703 37.1907 27.2992 36.4877 27.5985C35.795 27.8977 34.9782 28.0474 34.0373 28.0474H31.587V31.0699H29.5709V20.5957H34.0373ZM33.9443 26.4014C34.8231 26.4014 35.49 26.2218 35.9449 25.8627C36.3998 25.5036 36.6272 24.9899 36.6272 24.3215C36.6272 23.6532 36.3998 23.1394 35.9449 22.7803C35.49 22.4212 34.8231 22.2417 33.9443 22.2417H31.587V26.4014H33.9443Z" fill="#21A038"/>
<path d="M43.5741 22.9898C44.7941 22.9898 45.7246 23.2741 46.3656 23.8427C47.0169 24.4013 47.3426 25.2492 47.3426 26.3864V31.0699H45.5126V30.0973C45.2748 30.4464 44.9336 30.7158 44.4891 30.9053C44.0548 31.0849 43.5275 31.1747 42.9072 31.1747C42.2869 31.1747 41.7441 31.0749 41.2788 30.8754C40.8136 30.6659 40.4517 30.3816 40.1932 30.0225C39.9451 29.6534 39.821 29.2394 39.821 28.7806C39.821 28.0623 40.095 27.4887 40.643 27.0598C41.2013 26.6209 42.0749 26.4014 43.2639 26.4014H45.4041V26.2817C45.4041 25.7231 45.2283 25.2941 44.8768 24.9949C44.5356 24.6956 44.0238 24.546 43.3414 24.546C42.8762 24.546 42.4161 24.6158 41.9612 24.7555C41.5166 24.8951 41.1392 25.0896 40.8291 25.339L40.0691 23.9774C40.5034 23.6582 41.0255 23.4138 41.6355 23.2442C42.2455 23.0746 42.8917 22.9898 43.5741 22.9898ZM43.3104 29.813C43.7963 29.813 44.2254 29.7083 44.5976 29.4988C44.9802 29.2793 45.249 28.9701 45.4041 28.5711V27.6433H43.4035C42.2869 27.6433 41.7286 27.9975 41.7286 28.7057C41.7286 29.0449 41.8681 29.3142 42.1473 29.5137C42.4264 29.7133 42.8141 29.813 43.3104 29.813Z" fill="#21A038"/>
<path d="M57.4333 23.0796L53.5562 31.7133C53.1943 32.5812 52.7549 33.1897 52.238 33.5388C51.721 33.8979 51.0955 34.0775 50.3614 34.0775C49.9479 34.0775 49.5395 34.0127 49.1363 33.883C48.733 33.7533 48.4022 33.5737 48.1437 33.3443L48.9191 31.9677C49.1052 32.1373 49.3224 32.272 49.5705 32.3717C49.829 32.4715 50.0874 32.5213 50.3459 32.5213C50.6871 32.5213 50.9663 32.4365 51.1834 32.267C51.4108 32.0974 51.6176 31.8131 51.8037 31.4141L51.9433 31.0998L48.3298 23.0796H50.3459L52.9513 28.99L55.5723 23.0796H57.4333Z" fill="#21A038"/>
<defs>
<linearGradient id="paint0_linear_1386_74279" x1="10.9156" y1="31.8995" x2="8.6023" y2="25.4763" gradientUnits="userSpaceOnUse">
<stop offset="0.14" stop-color="#F1E813"/>
<stop offset="0.3" stop-color="#E6E418"/>
<stop offset="0.58" stop-color="#C9DA26"/>
<stop offset="0.89" stop-color="#A2CC39"/>
</linearGradient>
<linearGradient id="paint1_linear_1386_74279" x1="11.0568" y1="19.9507" x2="16.6586" y2="17.9002" gradientUnits="userSpaceOnUse">
<stop offset="0.06" stop-color="#0FA7DF"/>
<stop offset="0.54" stop-color="#0098F8"/>
<stop offset="0.92" stop-color="#0290EA"/>
</linearGradient>
<linearGradient id="paint2_linear_1386_74279" x1="15.9705" y1="33.5041" x2="22.2667" y2="32.1379" gradientUnits="userSpaceOnUse">
<stop offset="0.12" stop-color="#A2CC39"/>
<stop offset="0.28" stop-color="#86C239"/>
<stop offset="0.87" stop-color="#219F38"/>
</linearGradient>
<linearGradient id="paint3_linear_1386_74279" x1="16.1116" y1="17.7145" x2="21.5106" y2="19.3148" gradientUnits="userSpaceOnUse">
<stop offset="0.06" stop-color="#0290EA"/>
<stop offset="0.79" stop-color="#0C89CA"/>
</linearGradient>
<linearGradient id="paint4_linear_1386_74279" x1="10.6938" y1="31.6103" x2="16.5867" y2="33.7258" gradientUnits="userSpaceOnUse">
<stop offset="0.13" stop-color="#F1E813"/>
<stop offset="0.3" stop-color="#EAE616"/>
<stop offset="0.53" stop-color="#D8DF1F"/>
<stop offset="0.8" stop-color="#BAD52D"/>
<stop offset="0.98" stop-color="#A2CC39"/>
</linearGradient>
<linearGradient id="paint5_linear_1386_74279" x1="8.6964" y1="26.1156" x2="11.2088" y2="19.838" gradientUnits="userSpaceOnUse">
<stop offset="0.07" stop-color="#A2CC39"/>
<stop offset="0.26" stop-color="#81C45E"/>
<stop offset="0.92" stop-color="#0FA7DF"/>
</linearGradient>
</defs>
</svg>
