<svg width="42" height="42" viewBox="0 0 42 42" fill="none" xmlns="http://www.w3.org/2000/svg">
<g id="Group 63">
<rect id="Rectangle 165" width="42" height="42" rx="21" fill="#419FD9"/>
<path id="Vector" d="M10.1663 19.8428L21.4829 15.1807C22.5985 14.6936 26.3886 13.1396 26.3886 13.1396C26.3886 13.1396 28.1375 12.4575 27.9913 14.109C27.9426 14.791 27.5529 17.1683 27.1632 19.7454L25.955 27.3742C25.955 27.3742 25.8576 28.4898 25.0294 28.6847C24.2013 28.8796 22.8421 28.0027 22.5985 27.8127C22.4036 27.6665 18.9546 25.4792 17.6928 24.4123C17.3518 24.12 16.9621 23.5403 17.7416 22.8583C19.4905 21.2556 21.5804 19.2631 22.8421 18.0014C23.4267 17.4168 24.0064 16.0576 21.5804 17.7091L14.7309 22.3224C14.7309 22.3224 13.9515 22.8096 12.4949 22.3712C11.0383 21.9327 9.33812 21.353 9.33812 21.353C9.33812 21.353 8.17382 20.6223 10.1663 19.8428Z" fill="white"/>
</g>
</svg>
