<svg width="66" height="51" viewBox="0 0 66 51" fill="none" xmlns="http://www.w3.org/2000/svg">
<rect width="66" height="51" rx="5" fill="white"/>
<path d="M37.3203 15C31.3981 15 26.6406 19.7909 26.6406 25.6464C26.6406 31.5501 31.4463 36.2927 37.3203 36.2927C43.1942 36.2927 48 31.5018 48 25.6464C48 19.7909 43.1942 15 37.3203 15ZM37.3203 29.6146C35.1357 29.6146 33.34 27.8239 33.34 25.6464C33.34 23.4688 35.1364 21.6781 37.3203 21.6781C39.5042 21.6781 41.3013 23.4688 41.3013 25.6464C41.2523 27.8239 39.5049 29.6146 37.3203 29.6146Z" fill="#8B3FFD"/>
<path d="M26.6406 18.0931V33.5786H22.8547L18 18.0931H26.6406Z" fill="#8B3FFD"/>
</svg>
