<svg width="42" height="42" viewBox="0 0 42 42" fill="none" xmlns="http://www.w3.org/2000/svg">
<rect width="42" height="42" rx="21" fill="#0077FF"/>
<path d="M22.3421 26.8546C15.8507 26.8546 12.1472 22.4152 12 15.0082H15.262C15.3683 20.4367 17.7556 22.7341 19.6605 23.2083V15.0082H22.7263V19.6846C24.5985 19.4884 26.5688 17.3464 27.2311 15H30.2887C30.0353 16.2345 29.5529 17.3627 28.8253 18.3929C28.1059 19.423 27.1984 20.2651 26.1274 20.9191C27.3292 21.5159 28.3511 22.3335 29.2014 23.3636C30.0516 24.4019 30.6485 25.5628 31 26.8546H27.6317C26.9122 24.6063 25.1054 22.8567 22.7263 22.6196V26.8546H22.3584H22.3421Z" fill="white"/>
</svg>
