<svg width="42" height="42" viewBox="0 0 42 42" fill="none" xmlns="http://www.w3.org/2000/svg">
<rect width="42" height="42" rx="21" fill="#0DC143"/>
<path d="M28.4673 13.5649C26.5218 11.5784 23.8324 10.5 21.0858 10.5C15.2493 10.5 10.5572 15.2108 10.6144 20.9432C10.6144 22.7595 11.1294 24.5189 11.9877 26.1081L10.5 31.5L16.0504 30.0811C17.5954 30.9324 19.312 31.3297 21.0286 31.3297C26.8079 31.3297 31.5 26.6189 31.5 20.8865C31.5 18.1054 30.4128 15.4946 28.4673 13.5649ZM21.0858 29.5703C19.5409 29.5703 17.9959 29.173 16.6798 28.3784L16.3365 28.2081L13.0177 29.0595L13.876 25.8243L13.6471 25.4838C11.1294 21.4541 12.3311 16.1189 16.451 13.6216C20.5708 11.1243 25.8924 12.3162 28.4101 16.4027C30.9278 20.4892 29.7262 25.7676 25.6063 28.2649C24.2902 29.1162 22.688 29.5703 21.0858 29.5703ZM26.1213 23.2703L25.4918 22.9865C25.4918 22.9865 24.5763 22.5892 24.0041 22.3054C23.9469 22.3054 23.8896 22.2486 23.8324 22.2486C23.6608 22.2486 23.5463 22.3054 23.4319 22.3622C23.4319 22.3622 23.3747 22.4189 22.5736 23.327C22.5163 23.4405 22.4019 23.4973 22.2875 23.4973H22.2302C22.173 23.4973 22.0586 23.4405 22.0014 23.3838L21.7153 23.2703C21.0858 22.9865 20.5136 22.6459 20.0559 22.1919C19.9414 22.0784 19.7698 21.9649 19.6553 21.8514C19.2548 21.4541 18.8542 21 18.5681 20.4892L18.5109 20.3757C18.4537 20.3189 18.4537 20.2622 18.3965 20.1486C18.3965 20.0351 18.3965 19.9216 18.4537 19.8649C18.4537 19.8649 18.6826 19.5811 18.8542 19.4108C18.9687 19.2973 19.0259 19.127 19.1403 19.0135C19.2548 18.8432 19.312 18.6162 19.2548 18.4459C19.1975 18.1622 18.5109 16.6297 18.3392 16.2892C18.2248 16.1189 18.1104 16.0622 17.9387 16.0054H17.767C17.6526 16.0054 17.4809 16.0054 17.3093 16.0054C17.1948 16.0054 17.0804 16.0622 16.9659 16.0622L16.9087 16.1189C16.7943 16.1757 16.6798 16.2892 16.5654 16.3459C16.451 16.4595 16.3937 16.573 16.2793 16.6865C15.8787 17.1973 15.6499 17.8216 15.6499 18.4459C15.6499 18.9 15.7643 19.3541 15.936 19.7514L15.9932 19.9216C16.5082 21 17.1948 21.9649 18.1104 22.8162L18.3392 23.0432C18.5109 23.2135 18.6826 23.327 18.797 23.4973C19.9986 24.5189 21.3719 25.2568 22.9169 25.6541C23.0886 25.7108 23.3174 25.7108 23.4891 25.7676C23.6608 25.7676 23.8896 25.7676 24.0613 25.7676C24.3474 25.7676 24.6907 25.6541 24.9196 25.5405C25.0913 25.427 25.2057 25.427 25.3202 25.3135L25.4346 25.2C25.549 25.0865 25.6635 25.0297 25.7779 24.9162C25.8924 24.8027 26.0068 24.6892 26.064 24.5757C26.1785 24.3486 26.2357 24.0649 26.2929 23.7811C26.2929 23.6676 26.2929 23.4973 26.2929 23.3838C26.2929 23.3838 26.2357 23.327 26.1213 23.2703Z" fill="white"/>
</svg>
