<svg width="55" height="45" viewBox="0 0 55 45" fill="none" xmlns="http://www.w3.org/2000/svg">
<path d="M35.8 44.8C33.2667 44.8 31.2667 44.3333 29.8 43.4C28.4667 42.3333 27.8 40.9333 27.8 39.2C27.8 33.2 28.5333 27.8 30 23C31.4667 18.2 33.3333 14.0667 35.6 10.6C37.8667 7.13333 40.1333 4.53333 42.4 2.8C44.8 0.933333 46.8 0 48.4 0C49.4667 0 50.6667 0.199996 52 0.599991C53.4667 0.999994 54.2 1.8 54.2 3C54.2 3.53333 54 4.26666 53.6 5.19999C53.2 6.13333 52.8 7 52.4 7.8C50.2667 12.2 48.6 16.8667 47.4 21.8C46.2 26.6 45.6 32.1333 45.6 38.4C45.6 40.2667 44.9333 41.8 43.6 43C42.2667 44.2 40.2667 44.8 37.6 44.8H35.8ZM8 44.8C5.46667 44.8 3.46667 44.3333 2 43.4C0.666667 42.3333 0 40.9333 0 39.2C0 33.2 0.733333 27.8 2.2 23C3.66667 18.2 5.53333 14.0667 7.8 10.6C10.0667 7.13333 12.3333 4.53333 14.6 2.8C17 0.933333 19 0 20.6 0C21.6667 0 22.8667 0.199996 24.2 0.599991C25.6667 0.999994 26.4 1.8 26.4 3C26.4 3.53333 26.2 4.26666 25.8 5.19999C25.4 6.13333 25 7 24.6 7.8C22.4667 12.2 20.8 16.8667 19.6 21.8C18.4 26.6 17.8 32.1333 17.8 38.4C17.8 40.2667 17.1333 41.8 15.8 43C14.4667 44.2 12.4667 44.8 9.8 44.8H8Z" fill="#DAE147"/>
</svg>
