<svg width="16" height="15" viewBox="0 0 16 15" fill="none" xmlns="http://www.w3.org/2000/svg">
<path d="M14.963 5.20694L10.5 4.55831L8.50485 0.513581C8.45035 0.402839 8.3607 0.31319 8.24996 0.258698C7.97223 0.121589 7.63473 0.235846 7.49586 0.513581L5.50074 4.55831L1.03766 5.20694C0.914611 5.22452 0.802111 5.28253 0.715978 5.37042C0.611849 5.47744 0.554468 5.62143 0.556446 5.77074C0.558424 5.92006 0.619597 6.06247 0.726525 6.16671L3.95563 9.31495L3.19274 13.7605C3.17485 13.8639 3.18629 13.9702 3.22577 14.0675C3.26525 14.1647 3.33118 14.2489 3.4161 14.3106C3.50101 14.3723 3.60151 14.4089 3.70619 14.4164C3.81087 14.4239 3.91555 14.4018 4.00836 14.3528L8.00035 12.254L11.9923 14.3528C12.1013 14.4108 12.2279 14.4302 12.3492 14.4091C12.655 14.3564 12.8607 14.0663 12.808 13.7605L12.0451 9.31495L15.2742 6.16671C15.3621 6.08057 15.4201 5.96807 15.4377 5.84503C15.4851 5.53741 15.2707 5.25264 14.963 5.20694Z" fill="#DAE147"/>
</svg>
