<svg width="66" height="51" viewBox="0 0 66 51" fill="none" xmlns="http://www.w3.org/2000/svg">
<rect width="66" height="51" rx="5" fill="white"/>
<path d="M12.5996 35.3767H10.2481V33H9V38.9846H10.2481V36.5052H12.5996V38.9846H13.8386V33H12.5996V35.3767ZM16.8911 33L14.6752 38.9846H16.0228L16.4027 37.9073H18.926L19.3059 38.9846H20.6625L18.4376 33H16.8911ZM16.8006 36.8045L17.6689 34.3594L18.5371 36.8045H16.8006ZM22.396 36.5394C22.396 37.0866 22.3055 37.4613 22.1247 37.6637C21.9438 37.866 21.6604 37.9415 21.2745 37.8902V38.9846C21.9196 39.0473 22.4563 38.919 22.8844 38.5998C23.3848 38.2351 23.635 37.5369 23.635 36.5052V34.1285H25.462V38.9846H26.701V33H22.396V36.5394ZM29.3238 36.6591V33H28.0757V38.9846H29.0254L31.7386 35.334V38.9846H32.9867V33H32.0371L29.3238 36.6591ZM37.5254 35.6503C37.1456 35.8156 36.7416 35.8982 36.3135 35.8982C36.0181 35.8982 35.7814 35.817 35.6035 35.6546C35.4257 35.4921 35.3367 35.2684 35.3367 34.9835V33H34.0886V35.1373C34.0886 35.7187 34.2936 36.1804 34.7036 36.5223C35.1257 36.8586 35.6533 37.0268 36.2864 37.0268C36.7265 37.0268 37.1395 36.9498 37.5254 36.7959V38.9846H38.7735V33H37.5254V35.6503ZM43.7493 35.3767H41.3979V33H40.1498V38.9846H41.3979V36.5052H43.7493V38.9846H44.9884V33H43.7493V35.3767ZM51.4656 38.9846H52.7046V33H51.4656V38.9846ZM48.7252 34.9664H47.6127V33H46.3646V38.9846H48.7252C49.3281 38.9846 49.8406 38.7908 50.2627 38.4032C50.6787 38.0156 50.8867 37.5397 50.8867 36.9755C50.8867 36.4112 50.6787 35.9353 50.2627 35.5477C49.8406 35.1601 49.3281 34.9664 48.7252 34.9664ZM49.3854 37.6252C49.2105 37.7962 48.9905 37.8817 48.7252 37.8817H47.6127V36.0692H48.7252C48.9905 36.0692 49.2105 36.1547 49.3854 36.3257C49.5602 36.4967 49.6477 36.7133 49.6477 36.9755C49.6477 37.2376 49.5602 37.4542 49.3854 37.6252ZM55.332 37.856V36.5138H57.7287V35.4024H55.332V34.1285H57.9548V33H54.0839V38.9846H58V37.856H55.332Z" fill="#989EA5"/>
<path d="M46.7501 11H20.2499C19.5595 11 19 11.556 19 12.2421V27.1492C19 27.8353 19.5595 28.3913 20.2499 28.3913H46.7501C47.4405 28.3913 48 27.8353 48 27.1492V12.2421C48.0004 11.556 47.4405 11 46.7501 11ZM21.5001 25.907V22.1803C23.5713 22.1803 25.2502 23.8488 25.2502 25.907H21.5001ZM21.5001 17.2114V13.4846H25.2502C25.2502 15.5429 23.5713 17.2114 21.5001 17.2114ZM33.5 22.8015C31.7742 22.8015 30.3751 21.4111 30.3751 19.696C30.3751 17.981 31.7742 16.5901 33.5 16.5901C35.2258 16.5901 36.6249 17.9806 36.6249 19.6957C36.6249 21.4107 35.2261 22.8015 33.5 22.8015ZM45.5002 25.907H41.7502C41.7502 23.8488 43.4291 22.1803 45.5002 22.1803V25.907ZM45.5002 17.2114C43.4291 17.2114 41.7502 15.5429 41.7502 13.4846H45.5002V17.2114Z" fill="#B46B95"/>
</svg>
