<svg width="66" height="51" viewBox="0 0 66 51" fill="none" xmlns="http://www.w3.org/2000/svg">
<rect width="66" height="51" rx="5" fill="white"/>
<path d="M27.72 19.2608L21.912 32.8231H18.128L15.312 22.0428C15.224 21.5212 14.96 21.0865 14.52 20.8257C13.376 20.3041 12.232 19.8694 11 19.6955L11.088 19.3478H17.16C17.952 19.3478 18.656 19.9563 18.744 20.7388L20.24 28.5632L23.936 19.3478L27.72 19.2608ZM42.416 28.3893C42.416 24.8248 37.4 24.651 37.4 22.9991C37.4 22.4775 37.84 21.9559 38.896 21.869C40.128 21.782 41.36 21.9559 42.416 22.4775L43.032 19.6086C41.976 19.1739 40.832 19 39.688 19C36.168 19 33.704 20.8257 33.704 23.5208C33.704 25.4334 35.464 26.5636 36.784 27.2591C38.104 27.9546 38.632 28.3893 38.632 28.9109C38.632 29.7803 37.488 30.215 36.52 30.215C35.288 30.215 33.968 29.9542 32.912 29.3456L32.296 32.3015C33.528 32.8231 34.936 32.997 36.256 32.997C39.952 33.084 42.328 31.2583 42.416 28.3893ZM51.656 32.8231H55L52.096 19.2608H49.016C48.312 19.2608 47.784 19.6955 47.52 20.3041L42.152 32.9101H45.848L46.728 30.8236H51.304L51.656 32.8231ZM47.696 28.0416L49.544 22.9122L50.6 28.0416H47.696ZM32.736 19.2608L29.832 32.8231H26.312L29.216 19.2608H32.736Z" fill="url(#paint0_linear_1385_74216)"/>
<defs>
<linearGradient id="paint0_linear_1385_74216" x1="11" y1="26" x2="55" y2="26" gradientUnits="userSpaceOnUse">
<stop stop-color="#26225B"/>
<stop offset="1" stop-color="#0751A0"/>
</linearGradient>
</defs>
</svg>
