<svg width="153" height="51" viewBox="0 0 153 51" fill="none" xmlns="http://www.w3.org/2000/svg">
<rect width="153" height="51" rx="5" fill="white"/>
<path d="M102 0H148C150.761 0 153 2.23858 153 5V46C153 48.7614 150.761 51 148 51H102V0Z" fill="#FEDB5F"/>
<path d="M123.453 26.7188H124.742V28.5391H123.453V31H121.195V28.5391H116.531L116.43 27.1172L121.172 19.625H123.453V26.7188ZM118.68 26.7188H121.195V22.7031L121.047 22.9609L118.68 26.7188ZM126.172 29.8906C126.172 29.5312 126.292 29.2396 126.531 29.0156C126.776 28.7917 127.081 28.6797 127.445 28.6797C127.815 28.6797 128.12 28.7917 128.359 29.0156C128.604 29.2396 128.727 29.5312 128.727 29.8906C128.727 30.2448 128.607 30.5339 128.367 30.7578C128.128 30.9766 127.82 31.0859 127.445 31.0859C127.076 31.0859 126.771 30.9766 126.531 30.7578C126.292 30.5339 126.172 30.2448 126.172 29.8906ZM135.898 26.4531C135.31 27.0312 134.622 27.3203 133.836 27.3203C132.831 27.3203 132.026 26.9766 131.422 26.2891C130.818 25.5964 130.516 24.6641 130.516 23.4922C130.516 22.7474 130.677 22.0651 131 21.4453C131.328 20.8203 131.784 20.3359 132.367 19.9922C132.951 19.6432 133.607 19.4688 134.336 19.4688C135.086 19.4688 135.753 19.6562 136.336 20.0312C136.919 20.4062 137.372 20.9453 137.695 21.6484C138.018 22.3516 138.182 23.1562 138.188 24.0625V24.8984C138.188 26.7943 137.716 28.2839 136.773 29.3672C135.831 30.4505 134.495 31.0286 132.766 31.1016L132.211 31.1094V29.2266L132.711 29.2188C134.674 29.1302 135.737 28.2083 135.898 26.4531ZM134.391 25.5938C134.755 25.5938 135.068 25.5 135.328 25.3125C135.594 25.125 135.794 24.8984 135.93 24.6328V23.7031C135.93 22.9375 135.784 22.3438 135.492 21.9219C135.201 21.5 134.81 21.2891 134.32 21.2891C133.867 21.2891 133.495 21.4974 133.203 21.9141C132.911 22.3255 132.766 22.8438 132.766 23.4688C132.766 24.0885 132.906 24.599 133.188 25C133.474 25.3958 133.875 25.5938 134.391 25.5938Z" fill="black"/>
<path d="M57.0899 34.1034C58.4665 34.1034 59.5511 33.4777 60.3437 32.2679L60.5106 33.8531H63.1804V17H60.302V23.0905C59.5928 22.0059 58.5082 21.4219 57.215 21.4219C54.4201 21.4219 52.4595 23.7579 52.4595 27.8461C52.5012 31.8925 54.3784 34.1034 57.0899 34.1034ZM74.9025 33.0605V30.7244C73.9847 31.3085 72.483 31.8925 71.0646 31.8925C68.9371 31.8925 68.1445 30.8913 68.0194 28.8472H74.9859V27.3038C74.9859 23.0488 73.1087 21.4636 70.2303 21.4636C66.7262 21.4636 65.0159 24.1751 65.0159 27.8461C65.0159 32.1011 67.1016 34.1451 70.8143 34.1451C72.6498 34.1034 74.0264 33.6445 74.9025 33.0605ZM43.7409 25.1345C44.2832 24.4671 45.1175 23.9248 46.1604 23.9248C47.1616 23.9248 47.6204 24.342 47.6204 25.3014V33.9365H50.4988V24.9677C50.4988 22.5482 49.5394 21.4636 47.1616 21.4636C45.4512 21.4636 44.4083 22.0893 43.8243 22.6733H43.6575L43.574 21.6722H40.7374V33.8948H43.6157L43.7409 25.1345ZM38.4847 25.5517C38.4847 22.5899 36.983 21.4636 33.896 21.4636C31.9771 21.4636 30.4753 22.2562 29.5993 22.8819V25.3848C30.517 24.634 31.9354 23.7579 33.5623 23.7579C34.9389 23.7579 35.5646 24.2585 35.5646 25.5517V26.3443H35.1058C30.6839 26.3443 28.7233 27.7626 28.7233 30.349C28.7233 32.6851 30.225 34.0617 32.4777 34.0617C34.188 34.0617 34.8972 33.4777 35.4812 32.8937H35.6063C35.6063 33.2274 35.7315 33.6028 35.8149 33.8531H38.6516C38.5682 32.8519 38.4847 31.8508 38.4847 30.8496V25.5517ZM83.7462 33.8948H87L82.9953 27.5958L86.4577 21.6722H83.5793L81.4935 25.3848L79.1575 21.6722H75.8619L79.5746 27.5123L75.7368 33.8948H78.6569L81.1181 29.765L83.7462 33.8948ZM57.9659 23.7162C59.5094 23.7162 60.302 24.9677 60.302 27.7626C60.302 30.5993 59.4677 31.8508 57.8408 31.8508C56.2556 31.8508 55.5047 30.641 55.5047 27.8461C55.5047 24.9677 56.2973 23.7162 57.9659 23.7162ZM70.1886 23.7162C71.6069 23.7162 72.0658 24.8843 72.0658 26.4277V26.678H68.0194C68.1028 24.7174 68.812 23.7162 70.1886 23.7162ZM35.6063 30.9747C35.2309 31.517 34.5635 31.9342 33.5206 31.9342C32.3108 31.9342 31.6851 31.225 31.6851 30.1821C31.6851 28.7638 32.6863 28.2632 35.1475 28.2632H35.5646L35.6063 30.9747Z" fill="black"/>
<path d="M24.4683 31.0164V33.8948H21.5482V29.0558L16 17H19.087L23.3837 26.4277C24.218 28.2215 24.4683 28.8472 24.4683 31.0164ZM30.0165 17L26.4289 25.1763H23.4254L27.0129 17H30.0165Z" fill="#FC3F1D"/>
</svg>
